#N canvas -25 22 1265 737 10;
#X declare -stdpath extra/moocow -stdlib extra/pdstring;
#X obj 96 -89 cnv 15 690 480 empty empty E-Concertina_Project_by_Simon_Engelbertz
20 12 0 14 -150848 -66577 0;
#N canvas 146 163 525 433 serin 0;
#X obj 180 61 cnv 15 15 15 empty \$0-number-canvas 4 4 8 0 14 -233017
-1 0;
#X obj 200 225 s \$0-number-canvas;
#X obj 60 61 hradio 15 1 1 8 empty empty empty 0 -6 0 8 -225271 -1
-1 4;
#X obj 60 13 inlet;
#X msg 200 202 label \$1;
#X obj 200 180 makefilename %d;
#X obj 59 108 int;
#X msg 59 206 open \$1;
#X obj 59 377 outlet;
#X msg 201 306 set \$1 \$2;
#X obj 59 266 trigger bang anything;
#X obj 201 286 list;
#X obj 383 383 outlet;
#X obj 384 22 netreceive 34567;
#X obj 477 43 tgl 15 0 empty empty empty 0 -6 0 10 -262144 -1 -1 0
1;
#X obj 384 41 bng 15 250 50 0 empty empty empty 0 -6 0 10 -262144 -1
-1;
#X obj 187 24 delay 15000;
#X text 345 379 close;
#X text 209 4 for open/close automation in Makefile;
#X obj 184 95 bang;
#X obj 184 137 send ARDUINO_TEST_RESET;
#X msg 184 116 set 0;
#X connect 2 0 6 0;
#X connect 2 0 19 0;
#X connect 3 0 2 0;
#X connect 4 0 1 0;
#X connect 5 0 4 0;
#X connect 6 0 5 0;
#X connect 6 0 7 0;
#X connect 7 0 10 0;
#X connect 9 0 8 0;
#X connect 10 0 8 0;
#X connect 10 1 11 0;
#X connect 11 0 9 0;
#X connect 13 0 15 0;
#X connect 13 1 14 0;
#X connect 15 0 16 0;
#X connect 15 0 12 0;
#X connect 16 0 2 0;
#X connect 19 0 21 0;
#X connect 21 0 20 0;
#X coords 0 -1 1 1 136 17 1 60 60;
#X restore 128 -18 pd serin;
#X text 125 -36 serial port #;
#X msg 188 5 close;
#X floatatom 122 279 5 0 0 3 a0 - -;
#X floatatom 168 279 5 0 0 3 a1 - -;
#X floatatom 214 279 5 0 0 3 a2 - -;
#X floatatom 260 279 5 0 0 3 a3 - -;
#X floatatom 306 279 5 0 0 3 a4 - -;
#X floatatom 352 279 5 0 0 3 a5 - -;
#X msg 221 45 info;
#X msg 221 65 version;
#X floatatom 398 279 5 0 0 3 a6 - -;
#X floatatom 444 279 5 0 0 3 a7 - -;
#X obj 221 222 route 0 1 2 3 4 5 6 7;
#N canvas 981 48 499 396 display 0;
#X obj 6 7 inlet;
#X obj 6 28 mapping/resample 100;
#X obj 6 50 outlet;
#X obj 54 50 inlet;
#X obj 54 71 mapping/resample 100;
#X obj 54 93 outlet;
#X obj 103 93 inlet;
#X obj 103 114 mapping/resample 100;
#X obj 103 136 outlet;
#X obj 151 136 inlet;
#X obj 151 157 mapping/resample 100;
#X obj 151 179 outlet;
#X obj 200 179 inlet;
#X obj 200 200 mapping/resample 100;
#X obj 200 222 outlet;
#X obj 247 222 inlet;
#X obj 247 243 mapping/resample 100;
#X obj 247 265 outlet;
#X obj 295 265 inlet;
#X obj 295 286 mapping/resample 100;
#X obj 295 308 outlet;
#X obj 345 308 inlet;
#X obj 345 329 mapping/resample 100;
#X obj 345 351 outlet;
#X obj 60 290 receive ARDUINO_TEST_RESET;
#X connect 0 0 1 0;
#X connect 1 0 2 0;
#X connect 3 0 4 0;
#X connect 4 0 5 0;
#X connect 6 0 7 0;
#X connect 7 0 8 0;
#X connect 9 0 10 0;
#X connect 10 0 11 0;
#X connect 12 0 13 0;
#X connect 13 0 14 0;
#X connect 15 0 16 0;
#X connect 16 0 17 0;
#X connect 18 0 19 0;
#X connect 19 0 20 0;
#X connect 21 0 22 0;
#X connect 22 0 23 0;
#X connect 24 0 22 0;
#X connect 24 0 19 0;
#X connect 24 0 16 0;
#X connect 24 0 13 0;
#X connect 24 0 10 0;
#X connect 24 0 7 0;
#X connect 24 0 4 0;
#X connect 24 0 1 0;
#X restore 145 253 pd display values without pegging the CPU;
#X obj 506 224 route 0 1 2 3 4 5 6 7 8 9 10 11 12 13;
#X obj 537 246 tgl 15 0 empty ARDUINO_TEST_RESET 2 4 23 1 12 -232448
-1 -1 0 1;
#X obj 554 246 tgl 15 0 empty ARDUINO_TEST_RESET 3 4 23 1 12 -232448
-1 -1 0 1;
#X obj 571 246 tgl 15 0 empty ARDUINO_TEST_RESET 4 4 23 1 12 -232448
-1 -1 0 1;
#X obj 588 246 tgl 15 0 empty ARDUINO_TEST_RESET 5 4 23 1 12 -232448
-1 -1 0 1;
#X obj 605 246 tgl 15 0 empty ARDUINO_TEST_RESET 6 4 23 1 12 -232448
-1 -1 0 1;
#X obj 622 246 tgl 15 0 empty ARDUINO_TEST_RESET 7 4 23 1 12 -232448
-1 -1 0 1;
#X obj 639 246 tgl 15 0 empty ARDUINO_TEST_RESET 8 4 23 1 12 -232448
-1 -1 0 1;
#X obj 656 246 tgl 15 0 empty ARDUINO_TEST_RESET 9 4 23 1 12 -232448
-1 -1 0 1;
#X obj 673 246 tgl 15 0 empty ARDUINO_TEST_RESET 10 0 23 1 12 -232448
-1 -1 0 1;
#X obj 690 246 tgl 15 0 empty ARDUINO_TEST_RESET 11 0 23 1 12 -232448
-1 -1 0 1;
#X obj 707 246 tgl 15 0 empty ARDUINO_TEST_RESET 12 0 23 1 12 -232448
-1 -1 0 1;
#X obj 724 246 tgl 15 0 empty ARDUINO_TEST_RESET 13 0 23 1 12 -232448
-1 -1 0 1;
#X text 108 367 (C) Copyright 2006 Free Software Foundation;
#N canvas 3 48 451 224 ver 0;
#X obj 23 7 inlet;
#X obj 250 100 cnv 15 145 17 empty \$0-version_cnv Firmata-2.3 4 10
0 12 -203904 -1 0;
#X obj 23 157 send \$0-version_cnv;
#X msg 23 132 label \$1;
#X obj 48 103 symbol;
#X obj 38 77 loadbang;
#X msg 96 78 bang;
#X obj 309 163 outlet;
#X obj 23 52 zexy/makesymbol Firmata-%s.%s;
#X obj 23 29 route version bang;
#X connect 0 0 9 0;
#X connect 3 0 2 0;
#X connect 4 0 3 0;
#X connect 5 0 4 0;
#X connect 6 0 4 0;
#X connect 8 0 3 0;
#X connect 9 0 8 0;
#X connect 9 1 7 0;
#X connect 9 1 6 0;
#X connect 9 2 7 0;
#X coords 0 -1 1 1 145 17 1 250 100;
#X restore 447 157 pd ver;
#N canvas 649 518 411 212 firmware 0;
#X obj 123 2 inlet;
#X obj 250 100 cnv 15 145 17 empty \$0-firmware_cnv StandardFirmata_57600.ino-2.3
4 10 0 12 -232576 -66577 0;
#X msg 123 156 label \$1;
#X obj 148 127 symbol;
#X obj 138 101 loadbang;
#X msg 196 102 bang;
#X obj 123 181 send \$0-firmware_cnv;
#X obj 123 24 route firmware;
#X obj 18 181 print Firmware;
#X obj 123 49 list;
#X obj 123 80 zexy/makesymbol %s-%s.%s;
#X obj 18 151 list trim;
#X obj 204 45 route bang;
#X connect 0 0 7 0;
#X connect 2 0 6 0;
#X connect 3 0 2 0;
#X connect 4 0 3 0;
#X connect 5 0 3 0;
#X connect 7 0 9 0;
#X connect 7 1 12 0;
#X connect 9 0 10 0;
#X connect 10 0 2 0;
#X connect 10 0 11 0;
#X connect 11 0 8 0;
#X connect 12 0 5 0;
#X coords 0 -1 1 1 145 17 1 250 100;
#X restore 447 177 pd firmware;
#X msg 221 105 devices;
#X msg 221 85 firmware;
#N canvas 626 98 404 287 device 0;
#X obj 35 60 inlet;
#X obj 35 118 route open port ports;
#X obj 35 169 tgl 15 0 empty empty open -3 20 0 10 -262144 -1 -1 1
1;
#X floatatom 76 170 5 0 0 3 port - -;
#X obj 117 170 print comport_ports;
#X obj 252 170 outlet;
#X obj 235 74 receive ARDUINO_TEST_RESET;
#X obj 235 97 bang;
#X connect 0 0 1 0;
#X connect 1 0 2 0;
#X connect 1 1 3 0;
#X connect 1 2 4 0;
#X connect 1 3 5 0;
#X connect 6 0 7 0;
#X connect 7 0 5 0;
#X restore 447 135 pd device info;
#X text 539 135 <- open to see info;
#N canvas 413 280 446 317 pinMode 0;
#X obj 94 267 outlet;
#X obj 122 100 vradio 10 1 0 6 THIS_HIDES_THE_OUTLET ARDUINO_TEST_RESET
2 2 -8 0 10 -261682 -1 -1 1;
#X obj 132 100 vradio 10 1 0 6 THIS_HIDES_THE_OUTLET ARDUINO_TEST_RESET
3 2 -8 0 10 -261682 -1 -1 1;
#X obj 142 100 vradio 10 1 0 6 THIS_HIDES_THE_OUTLET ARDUINO_TEST_RESET
4 2 -8 0 10 -261682 -1 -1 1;
#X obj 152 100 vradio 10 1 0 6 THIS_HIDES_THE_OUTLET ARDUINO_TEST_RESET
5 2 -8 0 10 -261682 -1 -1 4;
#X obj 162 100 vradio 10 1 0 6 THIS_HIDES_THE_OUTLET ARDUINO_TEST_RESET
6 2 -8 0 10 -261682 -1 -1 4;
#X obj 172 100 vradio 10 1 0 6 THIS_HIDES_THE_OUTLET ARDUINO_TEST_RESET
7 2 -8 0 10 -261682 -1 -1 1;
#X obj 182 100 vradio 10 1 0 6 THIS_HIDES_THE_OUTLET ARDUINO_TEST_RESET
8 2 -8 0 10 -261682 -1 -1 1;
#X obj 192 100 vradio 10 1 0 6 THIS_HIDES_THE_OUTLET ARDUINO_TEST_RESET
9 2 -8 0 10 -261682 -1 -1 1;
#X obj 202 100 vradio 10 1 0 6 THIS_HIDES_THE_OUTLET ARDUINO_TEST_RESET
10 0 -8 0 8 -261682 -1 -1 1;
#X obj 212 100 vradio 10 1 0 6 THIS_HIDES_THE_OUTLET ARDUINO_TEST_RESET
11 0 -8 0 8 -261682 -1 -1 4;
#X obj 222 100 vradio 10 1 0 6 THIS_HIDES_THE_OUTLET ARDUINO_TEST_RESET
12 0 -8 0 8 -261682 -1 -1 1;
#X obj 232 100 vradio 10 1 0 6 THIS_HIDES_THE_OUTLET ARDUINO_TEST_RESET
13 0 -8 0 8 -261682 -1 -1 1;
#X obj 242 100 vradio 10 1 0 6 THIS_HIDES_THE_OUTLET ARDUINO_TEST_RESET
14 0 -8 0 8 -261682 -1 -1 3;
#X obj 252 100 vradio 10 1 0 6 THIS_HIDES_THE_OUTLET ARDUINO_TEST_RESET
15 0 -8 0 8 -261682 -1 -1 3;
#X obj 262 100 vradio 10 1 0 6 THIS_HIDES_THE_OUTLET ARDUINO_TEST_RESET
16 0 -8 0 8 -261682 -1 -1 3;
#X obj 272 100 vradio 10 1 0 6 THIS_HIDES_THE_OUTLET ARDUINO_TEST_RESET
17 0 -8 0 8 -261682 -1 -1 3;
#X obj 282 100 vradio 10 1 0 6 THIS_HIDES_THE_OUTLET ARDUINO_TEST_RESET
18 0 -8 0 8 -261682 -1 -1 0;
#X obj 292 100 vradio 10 1 0 6 THIS_HIDES_THE_OUTLET ARDUINO_TEST_RESET
19 0 -8 0 8 -261682 -1 -1 0;
#X obj 302 100 vradio 10 1 0 6 THIS_HIDES_THE_OUTLET ARDUINO_TEST_RESET
20 0 -8 0 8 -261682 -1 -1 0;
#X obj 312 100 vradio 10 1 0 6 THIS_HIDES_THE_OUTLET ARDUINO_TEST_RESET
21 0 -8 0 8 -261682 -1 -1 0;
#N canvas 109 37 1069 446 send-to-arduino---------------------- 0;
#X obj 49 14 inlet;
#X obj 89 14 inlet;
#X obj 128 14 inlet;
#X obj 168 14 inlet;
#X obj 208 14 inlet;
#X obj 248 14 inlet;
#X obj 287 14 inlet;
#X obj 327 14 inlet;
#X obj 368 13 inlet;
#X obj 408 13 inlet;
#X obj 447 13 inlet;
#X obj 487 13 inlet;
#X obj 527 13 inlet;
#X msg 49 56 pinMode 0 \$1;
#X msg 89 78 pinMode 1 \$1;
#X msg 128 100 pinMode 2 \$1;
#X msg 168 120 pinMode 3 \$1;
#X msg 208 52 pinMode 4 \$1;
#X msg 248 74 pinMode 5 \$1;
#X msg 287 96 pinMode 6 \$1;
#X msg 327 116 pinMode 7 \$1;
#X msg 368 48 pinMode 8 \$1;
#X msg 408 70 pinMode 9 \$1;
#X msg 447 92 pinMode 10 \$1;
#X msg 487 112 pinMode 11 \$1;
#X msg 527 40 pinMode 12 \$1;
#X obj 566 13 inlet;
#X msg 566 60 pinMode 13 \$1;
#X obj 607 13 inlet;
#X obj 647 13 inlet;
#X obj 687 13 inlet;
#X obj 726 13 inlet;
#X obj 767 13 inlet;
#X obj 807 13 inlet;
#X obj 847 13 inlet;
#X obj 886 13 inlet;
#X msg 607 92 pinMode 14 \$1;
#X msg 647 112 pinMode 15 \$1;
#X msg 687 40 pinMode 16 \$1;
#X msg 726 60 pinMode 17 \$1;
#X msg 767 92 pinMode 18 \$1;
#X msg 807 112 pinMode 19 \$1;
#X msg 847 40 pinMode 20 \$1;
#X msg 886 60 pinMode 21 \$1;
#X obj 927 13 inlet;
#X obj 967 13 inlet;
#X msg 927 92 pinMode 22 \$1;
#X msg 967 112 pinMode 23 \$1;
#X obj 521 427 outlet;
#X obj 481 403 trigger bang anything;
#X obj 481 358 list prepend set;
#X obj 481 380 list trim;
#X obj 481 199 list;
#X obj 481 221 unpack symbol float float;
#X obj 481 331 pack symbol float symbol;
#X obj 622 311 symbol;
#X msg 659 284 analog;
#X msg 707 284 pwm;
#X msg 737 284 servo;
#X obj 739 364 list trim;
#X obj 739 341 list prepend WARNING Unsupported pin mode:;
#X obj 739 386 print [arduino];
#X msg 568 284 input;
#X msg 609 284 output;
#X obj 628 240 - 1;
#X obj 628 259 select 0 1 2 3 4 -1;
#X text 757 258 (-1 == NONE);
#X connect 0 0 13 0;
#X connect 1 0 14 0;
#X connect 2 0 15 0;
#X connect 3 0 16 0;
#X connect 4 0 17 0;
#X connect 5 0 18 0;
#X connect 6 0 19 0;
#X connect 7 0 20 0;
#X connect 8 0 21 0;
#X connect 9 0 22 0;
#X connect 10 0 23 0;
#X connect 11 0 24 0;
#X connect 12 0 25 0;
#X connect 13 0 52 0;
#X connect 14 0 52 0;
#X connect 15 0 52 0;
#X connect 16 0 52 0;
#X connect 17 0 52 0;
#X connect 18 0 52 0;
#X connect 19 0 52 0;
#X connect 20 0 52 0;
#X connect 21 0 52 0;
#X connect 22 0 52 0;
#X connect 23 0 52 0;
#X connect 24 0 52 0;
#X connect 25 0 52 0;
#X connect 26 0 27 0;
#X connect 27 0 52 0;
#X connect 28 0 36 0;
#X connect 29 0 37 0;
#X connect 30 0 38 0;
#X connect 31 0 39 0;
#X connect 32 0 40 0;
#X connect 33 0 41 0;
#X connect 34 0 42 0;
#X connect 35 0 43 0;
#X connect 36 0 52 0;
#X connect 37 0 52 0;
#X connect 38 0 52 0;
#X connect 39 0 52 0;
#X connect 40 0 52 0;
#X connect 41 0 52 0;
#X connect 42 0 52 0;
#X connect 43 0 52 0;
#X connect 44 0 46 0;
#X connect 45 0 47 0;
#X connect 46 0 52 0;
#X connect 47 0 52 0;
#X connect 49 0 48 0;
#X connect 49 1 48 0;
#X connect 50 0 51 0;
#X connect 51 0 49 0;
#X connect 52 0 53 0;
#X connect 53 0 54 0;
#X connect 53 1 54 1;
#X connect 53 2 64 0;
#X connect 54 0 50 0;
#X connect 55 0 54 2;
#X connect 56 0 55 0;
#X connect 57 0 55 0;
#X connect 58 0 55 0;
#X connect 59 0 61 0;
#X connect 60 0 59 0;
#X connect 62 0 55 0;
#X connect 63 0 55 0;
#X connect 64 0 65 0;
#X connect 65 0 62 0;
#X connect 65 1 63 0;
#X connect 65 2 56 0;
#X connect 65 3 57 0;
#X connect 65 4 58 0;
#X connect 65 6 60 0;
#X restore 94 189 pd send-to-arduino----------------------;
#X obj 322 100 vradio 10 1 0 6 THIS_HIDES_THE_OUTLET ARDUINO_TEST_RESET
22 0 -8 0 8 -261682 -1 -1 0;
#X obj 332 100 vradio 10 1 0 6 THIS_HIDES_THE_OUTLET ARDUINO_TEST_RESET
23 0 -8 0 8 -261682 -1 -1 0;
#X obj 100 100 cnv 10 10 60 empty empty Rx 0 23 0 8 -191407 -86277
0;
#X obj 111 100 cnv 10 10 60 empty empty Tx 0 23 0 8 -191407 -13381
0;
#X connect 1 0 21 2;
#X connect 2 0 21 3;
#X connect 3 0 21 4;
#X connect 4 0 21 5;
#X connect 5 0 21 6;
#X connect 6 0 21 7;
#X connect 7 0 21 8;
#X connect 8 0 21 9;
#X connect 9 0 21 10;
#X connect 10 0 21 11;
#X connect 11 0 21 12;
#X connect 12 0 21 13;
#X connect 13 0 21 14;
#X connect 14 0 21 15;
#X connect 15 0 21 16;
#X connect 16 0 21 17;
#X connect 17 0 21 18;
#X connect 18 0 21 19;
#X connect 19 0 21 20;
#X connect 20 0 21 21;
#X connect 21 0 0 0;
#X connect 22 0 21 22;
#X connect 23 0 21 23;
#X coords 0 -1 1 1 242 60 2 100 100;
#X restore 339 -37 pd pinMode;
#X text 586 8 servo;
#X text 586 -2 pwm;
#X text 586 -30 input;
#X text 586 -21 output;
#X text 586 -11 analog;
#X obj 503 246 tgl 15 0 empty ARDUINO_TEST_RESET 0 4 23 1 12 -232448
-1 -1 0 1;
#X obj 520 246 tgl 15 0 empty ARDUINO_TEST_RESET 1 4 23 1 12 -232448
-1 -1 0 1;
#X text 285 63 <-- get protocol version;
#X text 285 83 <-- get firmware name and version;
#X text 285 44 <-- get connection info;
#X text 281 149 <-- argument sets port #;
#X text 189 -56 configure mode for each pin:;
#X text 285 103 <-- list available serial devices;
#X text 109 222 analog inputs:;
#X text 586 -41 NONE;
#X obj 221 182 route analog digital string sysex;
#X msg 128 5 open 4;
#X msg 339 27 pinMode 17 analog;
#X text 501 202 digital inputs show up here:;
#X obj 97 394 cnv 15 685 308 empty empty Accelerometer_X/Z-Axis_Control
20 12 0 14 -183856 -66577 0;
#X floatatom 278 494 5 0 0 0 - - -;
#X floatatom 536 534 5 0 0 0 - - -;
#X obj 391 423 metro 250;
#X obj 390 447 cup;
#X obj 390 470 % 2;
#X floatatom 426 470 5 0 0 0 - - -;
#X obj 622 462 t b b;
#X floatatom 591 569 5 0 0 0 - - -;
#X msg 678 482 0;
#X msg 575 481 1;
#X obj 611 437 metro 250;
#X obj 578 533 abs;
#X obj 630 551 >= 0.25;
#X obj 1006 -89 cnv 15 450 185 empty empty Note_C_(R:0_G:0_B:255) 20
12 0 14 -64 -262144 0;
#X text 546 373 released under the GNU GPL v2 or later;
#X obj 1015 58 noteout 1;
#X floatatom 1097 -62 5 0 0 0 - - -;
#X obj 1010 -38 moses 1;
#X obj 755 -89 cnv 15 250 246 empty empty Octave_Plus/Minus 20 12 0
14 -203904 -66577 0;
#X obj 793 11 +;
#X floatatom 936 6 5 0 0 0 - - -;
#X obj 853 31 f;
#X msg 769 -12 1;
#X obj 888 13 +;
#X msg 866 -12 -1;
#X floatatom 844 54 5 0 0 0 - - -;
#X msg 823 -7 0;
#X obj 788 75 spigot;
#X floatatom 947 55 5 0 0 0 - - -;
#X obj 895 74 spigot;
#X obj 804 50 > 1;
#X obj 906 46 < -1;
#X msg 1052 32 \$1 127;
#X floatatom 1089 59 5 0 0 0 - - -;
#X obj 1239 99 cnv 15 490 180 empty empty Note_D_(R:105_G:0_B:255)
20 12 0 14 -106560 -262144 0;
#X obj 1246 241 noteout 1;
#X floatatom 1329 129 5 0 0 0 - - -;
#X obj 1248 148 moses 1;
#X msg 1404 181 62;
#X msg 1456 183 74;
#X msg 1507 185 86;
#X msg 1288 215 \$1 127;
#X floatatom 1313 241 5 0 0 0 - - -;
#X obj 786 99 cnv 15 450 180 empty empty Note_E_(R:255_G:0_B:0) 20
12 0 14 -258049 -262144 0;
#X obj 792 236 noteout 1;
#X floatatom 899 129 5 0 0 0 - - -;
#X msg 833 211 \$1 127;
#X msg 943 179 64;
#X msg 996 182 76;
#X msg 1046 183 88;
#X floatatom 860 237 5 0 0 0 - - -;
#X obj 1239 281 cnv 15 490 180 empty empty Note_F_(R:255_G:128_B:0)
20 12 0 14 -260097 -262144 0;
#X obj 1243 422 noteout 1;
#X floatatom 1339 316 5 0 0 0 - - -;
#X msg 1395 370 65;
#X msg 1447 372 77;
#X msg 1498 374 89;
#X msg 1311 406 \$1 127;
#X obj 787 282 cnv 15 450 180 empty empty Note_G_(R:255_G:255_B:0)
20 12 0 14 -262081 -1 0;
#X obj 788 424 noteout 1;
#X floatatom 872 326 5 0 0 0 - - -;
#X obj 798 338 moses 1;
#X msg 927 367 67;
#X msg 966 366 79;
#X msg 1025 371 91;
#X floatatom 865 427 5 0 0 0 - - -;
#X obj 1240 464 cnv 15 580 180 empty empty Note_A_(R:38_G:255_B:48)
20 12 0 14 -40908 -1 0;
#X obj 1250 604 noteout 1;
#X obj 1249 522 moses 1;
#X floatatom 1335 493 5 0 0 0 - - -;
#X msg 1281 575 \$1 127;
#X floatatom 1320 603 5 0 0 0 - - -;
#X obj 787 464 cnv 15 450 180 empty empty Note_H_(R:0_G:128_B:0) 20
12 0 14 -2049 -262144 0;
#X obj 801 601 noteout 1;
#X floatatom 881 500 5 0 0 0 - - -;
#X obj 798 515 moses 1;
#X msg 848 577 \$1 127;
#X floatatom 871 604 5 0 0 0 - - -;
#X text 1464 75 Color scheme after George Field;
#X msg 1372 -57 1;
#X msg 1413 -58 0;
#X text 1336 -88 LED B control;
#X text 1218 -84 Pitch control;
#X text 1014 74 Note ON/OFF + MIDI Note Out control;
#X text 800 257 Note ON/OFF + MIDI Note Out control;
#X text 792 441 Note ON/OFF + MIDI Note Out control;
#X text 798 618 Note ON/OFF + MIDI Note Out control;
#X text 1255 259 Note ON/OFF + MIDI Note Out control;
#X text 1257 440 Note ON/OFF + MIDI Note Out control;
#X text 1254 623 Note ON/OFF + MIDI Note Out control;
#X text 984 111 Pitch control;
#X text 981 298 Pitch control;
#X text 992 469 Pitch control;
#X text 1441 300 Pitch control;
#X msg 1153 500 1;
#X msg 1186 500 0;
#X text 1138 472 LED G control;
#X msg 1149 126 1;
#X msg 1190 126 0;
#X text 1116 103 LED R control;
#X msg 1092 308 1;
#X msg 1121 307 0;
#X text 1114 281 LED R/G control;
#X msg 1183 306 1;
#X msg 1211 306 0;
#X msg 1586 309 1;
#X msg 1617 309 0;
#X text 1602 286 LED R/G control;
#X msg 1688 308 0;
#X msg 1655 308 0.5;
#X msg 1603 130 0;
#X msg 1696 132 0;
#X text 1594 102 LED R/B control;
#X msg 1662 132 1;
#X msg 1610 490 0;
#X msg 1697 486 0;
#X msg 1786 487 0;
#X text 1584 468 LED R/G/B control;
#X msg 1669 486 1;
#X msg 1748 487 0.25;
#N canvas 0 22 450 300 (subpatch) 0;
#X array zvaluesrechts 2 float 3;
#A 0 0 0;
#X coords 0 80 2 0 200 140 1;
#X restore 290 558 graph;
#X obj 392 400 loadbang;
#X obj 652 593 spigot;
#X text 507 405 difference between 1st and 2nd movement;
#X text 280 517 write values of movement into array;
#X text 274 412 get Z-Axis values;
#X msg 1559 130 0.42;
#X obj 1175 -35 sel -1;
#X obj 1232 -33 sel 0;
#X obj 1279 -33 sel 1;
#X msg 1185 -10 60;
#X msg 1225 -8 72;
#X msg 1268 -8 84;
#X floatatom 1280 18 5 0 0 0 - - -;
#X msg 1067 -19 0;
#X obj 868 -36 sel 1;
#X obj 768 -36 sel 1;
#X obj 939 154 sel -1;
#X obj 996 156 sel 0;
#X obj 1043 156 sel 1;
#X floatatom 1053 209 5 0 0 0 - - -;
#X msg 832 164 0;
#X obj 922 339 sel -1;
#X obj 979 341 sel 0;
#X obj 1026 341 sel 1;
#X floatatom 1029 395 5 0 0 0 - - -;
#X msg 857 356 0;
#X obj 940 515 sel -1;
#X obj 997 517 sel 0;
#X obj 1044 517 sel 1;
#X floatatom 1078 568 5 0 0 0 - - -;
#X msg 861 527 0;
#X obj 1389 527 sel -1;
#X obj 1666 529 sel 0;
#X obj 1493 529 sel 1;
#X floatatom 1515 593 5 0 0 0 - - -;
#X msg 1325 524 0;
#X text 1446 481 Pitch control;
#X msg 1404 558 69;
#X msg 1668 560 81;
#X msg 1493 559 93;
#X obj 1392 346 sel -1;
#X obj 1449 348 sel 0;
#X obj 1496 348 sel 1;
#X floatatom 1518 412 5 0 0 0 - - -;
#X msg 1345 351 0;
#X obj 1393 152 sel -1;
#X obj 1450 154 sel 0;
#X obj 1497 154 sel 1;
#X floatatom 1519 228 5 0 0 0 - - -;
#X msg 1311 166 0;
#X msg 1578 488 0.2;
#X obj 796 142 moses 1;
#X msg 1553 172 pwm 11 \$1;
#X msg 1642 173 pwm 6 \$1;
#X msg 1361 -18 pwm 6 \$1;
#X msg 1147 160 pwm 11 \$1;
#X msg 1579 341 pwm 11 \$1;
#X msg 1657 341 pwm 5 \$1;
#X msg 1581 526 pwm 11 \$1;
#X msg 1654 524 pwm 5 \$1;
#X msg 1743 526 pwm 6 \$1;
#X msg 1082 351 pwm 11 \$1;
#X msg 1160 351 pwm 5 \$1;
#X msg 1155 539 pwm 5 \$1;
#X obj 290 454 * 127;
#X obj 127 494 vsl 15 127 1 127 0 0 empty empty empty 0 -9 0 10 -260097
-1 -1 0 1;
#X floatatom 180 575 5 0 0 0 - - -;
#X text 148 627 MIDI Controller Out;
#X obj 128 446 * 127;
#X obj 128 471 int;
#X obj 319 496 tabwrite zvaluesrechts;
#X obj 486 503 expr zvaluesrechts[$f2] - zvaluesrechts[$f1];
#X obj 182 321 s y_axis_mid;
#X obj 267 321 s z_axis_mid;
#X obj 98 322 s x_axis_mid;
#X obj 369 353 s octaveMinus_mid;
#X obj 370 326 s octavePlus_mid;
#X obj 469 317 s noteC3_mid;
#X obj 551 316 s noteE3_mid;
#X obj 515 293 s noteD3_mid;
#X obj 595 292 s noteF3_mid;
#X obj 672 292 s noteA3_mid;
#X obj 630 318 s noteG3_mid;
#X obj 709 316 s noteH3_mid;
#X obj 289 427 r z_axis_mid;
#X obj 128 422 r x_axis_mid;
#X obj 656 622 s zAxis_mid;
#X obj 929 -26 s pitch_mid;
#X obj 799 493 r noteH3_mid;
#X obj 963 490 r pitch_mid;
#X obj 860 555 tabread htones1;
#X obj 963 573 tabwrite htones1;
#X obj 1059 608 table htones1;
#X msg 1151 602 \; htones1 0 83;
#X obj 796 311 r noteG3_mid;
#X obj 945 314 r pitch_mid;
#X obj 852 386 tabread gtones1;
#X obj 927 411 tabwrite gtones1;
#X obj 1045 437 table gtones1;
#X msg 1139 425 \; gtones1 0 79;
#X obj 1249 493 r noteA3_mid;
#X obj 1415 502 r pitch_mid;
#X obj 1303 551 tabread atones1;
#X obj 1407 587 tabwrite atones1;
#X obj 1498 617 table atones1;
#X msg 1598 607 \; atones1 0 81;
#X obj 103 114 r ArduinoIn_mid;
#X obj 106 175 s ArduinoOut_mid;
#X obj 791 121 r noteE3_mid;
#X obj 962 129 r pitch_mid;
#X obj 1129 196 s ArduinoIn_mid;
#X msg 1128 243 \; etones1 0 76;
#X obj 1040 250 table etones1;
#X obj 946 225 tabwrite etones1;
#X obj 828 187 tabread etones1;
#X obj 1138 401 s ArduinoIn_mid;
#X obj 1061 375 s ArduinoIn_mid;
#X obj 1140 569 s ArduinoIn_mid;
#X obj 767 -59 r octavePlus_mid;
#X obj 879 -59 r octaveMinus_mid;
#X obj 1011 -66 r noteC3_mid;
#X obj 1198 -60 r pitch_mid;
#X obj 1086 7 tabread ctones1;
#X obj 1171 31 tabwrite ctones1;
#X obj 1262 67 table ctones1;
#X msg 1356 51 \; ctones1 0 72;
#X obj 1355 25 s ArduinoIn_mid;
#X obj 1248 126 r noteD3_mid;
#X obj 1416 127 r pitch_mid;
#X obj 1406 211 tabwrite dtones1;
#X obj 1314 190 tabread dtones1;
#X obj 1531 256 table dtones1;
#X msg 1624 243 \; dtones1 0 77;
#X obj 1632 209 s ArduinoIn_mid;
#X obj 1528 207 s ArduinoIn_mid;
#X obj 1247 305 r noteF3_mid;
#X obj 1405 395 tabwrite ftones1;
#X obj 1521 436 table ftones1;
#X msg 1621 426 \; ftones1 0 77;
#X obj 1632 378 s ArduinoIn_mid;
#X obj 1537 379 s ArduinoIn_mid;
#X obj 1530 561 s ArduinoIn_mid;
#X obj 1629 561 s ArduinoIn_mid;
#X obj 1726 561 s ArduinoIn_mid;
#X obj 1415 321 r pitch_mid;
#X obj 1244 326 moses 0.9;
#X text 308 606 visualisation of difference 1st and 2nd movement;
#X obj 1298 386 tabread ftones1;
#X obj 221 150 arduino 2;
#X msg 999 543 82;
#X msg 1049 543 94;
#X msg 947 541 70;
#X msg 850 405 \$1 127;
#X floatatom 1370 423 5 0 0 0 - - -;
#X obj 730 186 tabread etones1;
#X msg 791 165 0;
#X msg 791 211 \$1 0;
#X msg 1011 31 \$1 0;
#X obj 987 7 tabread ctones1;
#X msg 1011 -14 0;
#X msg 1243 165 0;
#X obj 1230 190 tabread dtones1;
#X msg 1245 214 \$1 0;
#X msg 791 396 \$1 0;
#X obj 788 373 tabread gtones1;
#X msg 806 358 0;
#X msg 1249 347 0;
#X obj 1245 368 tabread ftones1;
#X msg 1242 394 \$1 0;
#X msg 798 535 0;
#X obj 755 558 tabread htones1;
#X msg 798 580 \$1 0;
#X msg 1243 543 0;
#X obj 1235 558 tabread atones1;
#X msg 1241 580 \$1 0;
#X obj 231 469 vsl 15 127 1 127 0 0 empty empty empty 0 -9 0 10 -260097
-1 -1 0 1;
#X floatatom 284 550 5 0 0 0 - - -;
#X obj 279 577 ctlout 2 2;
#X obj 224 443 int;
#X obj 176 602 ctlout 2 2;
#X connect 1 0 53 0;
#X connect 1 1 3 0;
#X connect 3 0 326 0;
#X connect 4 0 252 0;
#X connect 5 0 250 0;
#X connect 6 0 251 0;
#X connect 7 0 258 0;
#X connect 10 0 326 0;
#X connect 11 0 326 0;
#X connect 14 0 15 0;
#X connect 14 1 15 1;
#X connect 14 2 15 2;
#X connect 14 3 15 3;
#X connect 14 4 15 4;
#X connect 14 5 15 5;
#X connect 14 6 15 6;
#X connect 14 7 15 7;
#X connect 15 0 4 0;
#X connect 15 1 5 0;
#X connect 15 2 6 0;
#X connect 15 3 7 0;
#X connect 15 4 8 0;
#X connect 15 5 9 0;
#X connect 15 6 12 0;
#X connect 15 7 13 0;
#X connect 16 0 42 0;
#X connect 16 1 43 0;
#X connect 16 2 17 0;
#X connect 16 3 18 0;
#X connect 16 4 19 0;
#X connect 16 5 20 0;
#X connect 16 6 21 0;
#X connect 16 7 22 0;
#X connect 16 8 23 0;
#X connect 16 9 24 0;
#X connect 16 10 25 0;
#X connect 16 11 26 0;
#X connect 16 12 27 0;
#X connect 16 13 28 0;
#X connect 17 0 255 0;
#X connect 18 0 256 0;
#X connect 19 0 260 0;
#X connect 23 0 259 0;
#X connect 24 0 254 0;
#X connect 25 0 253 0;
#X connect 27 0 261 0;
#X connect 28 0 257 0;
#X connect 30 0 31 0;
#X connect 32 0 326 0;
#X connect 33 0 326 0;
#X connect 34 0 30 0;
#X connect 36 0 54 0;
#X connect 52 0 14 0;
#X connect 52 1 16 0;
#X connect 53 0 326 0;
#X connect 54 0 326 0;
#X connect 59 0 60 0;
#X connect 60 0 61 0;
#X connect 61 0 62 0;
#X connect 61 0 248 1;
#X connect 63 0 66 0;
#X connect 63 1 65 0;
#X connect 64 0 179 0;
#X connect 64 0 179 1;
#X connect 65 0 249 1;
#X connect 66 0 249 0;
#X connect 67 0 63 0;
#X connect 68 0 69 0;
#X connect 69 0 64 0;
#X connect 74 0 137 0;
#X connect 74 0 337 0;
#X connect 74 1 136 0;
#X connect 74 1 191 0;
#X connect 76 0 78 0;
#X connect 77 0 265 0;
#X connect 78 0 77 0;
#X connect 78 0 76 1;
#X connect 78 0 80 1;
#X connect 78 0 87 0;
#X connect 78 0 88 0;
#X connect 79 0 76 0;
#X connect 80 0 78 0;
#X connect 81 0 80 0;
#X connect 82 0 84 1;
#X connect 82 0 84 0;
#X connect 83 0 78 0;
#X connect 84 0 81 0;
#X connect 85 0 86 1;
#X connect 85 0 86 0;
#X connect 86 0 79 0;
#X connect 87 0 82 0;
#X connect 88 0 85 0;
#X connect 89 0 72 0;
#X connect 89 0 90 0;
#X connect 94 0 167 0;
#X connect 94 0 168 0;
#X connect 94 0 338 0;
#X connect 94 1 170 0;
#X connect 94 1 183 0;
#X connect 94 1 227 0;
#X connect 95 0 307 0;
#X connect 96 0 307 0;
#X connect 97 0 307 0;
#X connect 98 0 92 0;
#X connect 98 0 99 0;
#X connect 103 0 101 0;
#X connect 103 0 107 0;
#X connect 104 0 291 0;
#X connect 105 0 291 0;
#X connect 106 0 291 0;
#X connect 111 0 314 0;
#X connect 112 0 314 0;
#X connect 113 0 314 0;
#X connect 114 0 109 0;
#X connect 114 0 331 0;
#X connect 118 0 158 0;
#X connect 118 0 161 0;
#X connect 118 0 343 0;
#X connect 118 1 157 0;
#X connect 118 1 160 0;
#X connect 118 1 203 0;
#X connect 119 0 275 0;
#X connect 120 0 275 0;
#X connect 121 0 275 0;
#X connect 125 0 171 0;
#X connect 125 0 172 0;
#X connect 125 0 173 0;
#X connect 125 0 350 0;
#X connect 125 1 175 0;
#X connect 125 1 176 0;
#X connect 125 1 213 0;
#X connect 125 1 228 0;
#X connect 127 0 124 0;
#X connect 127 0 128 0;
#X connect 132 0 152 0;
#X connect 132 0 347 0;
#X connect 132 1 151 0;
#X connect 132 1 208 0;
#X connect 133 0 130 0;
#X connect 133 0 134 0;
#X connect 136 0 232 0;
#X connect 137 0 232 0;
#X connect 151 0 241 0;
#X connect 152 0 241 0;
#X connect 154 0 233 0;
#X connect 155 0 233 0;
#X connect 157 0 239 0;
#X connect 158 0 239 0;
#X connect 160 0 240 0;
#X connect 161 0 240 0;
#X connect 162 0 234 0;
#X connect 163 0 234 0;
#X connect 165 0 235 0;
#X connect 166 0 235 0;
#X connect 167 0 230 0;
#X connect 168 0 231 0;
#X connect 170 0 231 0;
#X connect 171 0 236 0;
#X connect 172 0 237 0;
#X connect 173 0 238 0;
#X connect 175 0 237 0;
#X connect 176 0 238 0;
#X connect 178 0 59 0;
#X connect 178 0 67 0;
#X connect 179 0 264 0;
#X connect 183 0 230 0;
#X connect 184 0 187 0;
#X connect 185 0 188 0;
#X connect 186 0 189 0;
#X connect 187 0 301 0;
#X connect 188 0 301 0;
#X connect 189 0 301 0;
#X connect 190 0 301 1;
#X connect 191 0 300 0;
#X connect 192 0 81 0;
#X connect 193 0 79 0;
#X connect 194 0 104 0;
#X connect 195 0 105 0;
#X connect 196 0 106 0;
#X connect 197 0 291 1;
#X connect 198 0 292 0;
#X connect 199 0 119 0;
#X connect 200 0 120 0;
#X connect 201 0 121 0;
#X connect 202 0 275 1;
#X connect 203 0 274 0;
#X connect 204 0 329 0;
#X connect 205 0 327 0;
#X connect 206 0 328 0;
#X connect 207 0 269 1;
#X connect 208 0 268 0;
#X connect 209 0 215 0;
#X connect 210 0 216 0;
#X connect 211 0 217 0;
#X connect 212 0 281 1;
#X connect 213 0 280 0;
#X connect 215 0 281 0;
#X connect 216 0 281 0;
#X connect 217 0 281 0;
#X connect 218 0 111 0;
#X connect 219 0 112 0;
#X connect 220 0 113 0;
#X connect 221 0 314 1;
#X connect 222 0 325 0;
#X connect 223 0 95 0;
#X connect 224 0 96 0;
#X connect 225 0 97 0;
#X connect 226 0 307 1;
#X connect 227 0 308 0;
#X connect 228 0 236 0;
#X connect 229 0 155 0;
#X connect 229 0 333 0;
#X connect 229 1 154 0;
#X connect 229 1 198 0;
#X connect 230 0 312 0;
#X connect 231 0 311 0;
#X connect 232 0 304 0;
#X connect 233 0 288 0;
#X connect 234 0 318 0;
#X connect 235 0 317 0;
#X connect 236 0 319 0;
#X connect 237 0 320 0;
#X connect 238 0 321 0;
#X connect 239 0 294 0;
#X connect 240 0 293 0;
#X connect 241 0 295 0;
#X connect 242 0 57 0;
#X connect 242 0 248 0;
#X connect 242 0 356 0;
#X connect 243 0 244 0;
#X connect 244 0 357 0;
#X connect 246 0 247 0;
#X connect 247 0 243 0;
#X connect 249 0 58 0;
#X connect 249 0 68 0;
#X connect 262 0 242 0;
#X connect 266 0 132 0;
#X connect 266 0 131 0;
#X connect 266 0 132 1;
#X connect 267 0 204 0;
#X connect 267 0 205 0;
#X connect 267 0 206 0;
#X connect 268 0 133 0;
#X connect 272 0 118 0;
#X connect 272 0 117 0;
#X connect 272 0 118 1;
#X connect 273 0 199 0;
#X connect 273 0 200 0;
#X connect 273 0 201 0;
#X connect 274 0 330 0;
#X connect 278 0 125 0;
#X connect 278 0 126 0;
#X connect 278 0 125 1;
#X connect 279 0 209 0;
#X connect 279 0 210 0;
#X connect 279 0 211 0;
#X connect 280 0 127 0;
#X connect 284 0 326 0;
#X connect 286 0 102 0;
#X connect 286 0 229 0;
#X connect 286 0 229 1;
#X connect 287 0 194 0;
#X connect 287 0 195 0;
#X connect 287 0 196 0;
#X connect 292 0 103 0;
#X connect 296 0 193 0;
#X connect 297 0 192 0;
#X connect 298 0 74 0;
#X connect 298 0 73 0;
#X connect 298 0 74 1;
#X connect 299 0 184 0;
#X connect 299 0 185 0;
#X connect 299 0 186 0;
#X connect 300 0 89 0;
#X connect 305 0 94 0;
#X connect 305 0 93 0;
#X connect 305 0 94 1;
#X connect 306 0 223 0;
#X connect 306 0 224 0;
#X connect 306 0 225 0;
#X connect 308 0 98 0;
#X connect 313 0 110 0;
#X connect 313 0 323 0;
#X connect 322 0 218 0;
#X connect 322 0 219 0;
#X connect 322 0 220 0;
#X connect 323 0 163 0;
#X connect 323 0 165 0;
#X connect 323 0 344 0;
#X connect 323 1 162 0;
#X connect 323 1 166 0;
#X connect 323 1 222 0;
#X connect 325 0 114 0;
#X connect 326 0 52 0;
#X connect 326 0 285 0;
#X connect 326 1 34 0;
#X connect 327 0 269 0;
#X connect 328 0 269 0;
#X connect 329 0 269 0;
#X connect 330 0 116 0;
#X connect 330 0 122 0;
#X connect 332 0 334 0;
#X connect 333 0 332 0;
#X connect 334 0 101 0;
#X connect 335 0 72 0;
#X connect 336 0 335 0;
#X connect 337 0 336 0;
#X connect 338 0 339 0;
#X connect 339 0 340 0;
#X connect 340 0 92 0;
#X connect 341 0 116 0;
#X connect 342 0 341 0;
#X connect 343 0 342 0;
#X connect 344 0 345 0;
#X connect 345 0 346 0;
#X connect 346 0 109 0;
#X connect 347 0 348 0;
#X connect 348 0 349 0;
#X connect 349 0 130 0;
#X connect 350 0 351 0;
#X connect 351 0 352 0;
#X connect 352 0 124 0;
#X connect 353 0 354 0;
#X connect 354 0 355 0;
#X connect 356 0 353 0;
